<svg xmlns="http://www.w3.org/2000/svg" version="1.1" xmlns:xlink="http://www.w3.org/1999/xlink" xmlns:svgjs="http://svgjs.dev/svgjs" width="1000" height="335" viewBox="0 0 1000 335"><g transform="matrix(1,0,0,1,-0.6060294102915691,0.27074249184391874)"><svg viewBox="0 0 396 133" data-background-color="#ffffff" preserveAspectRatio="xMidYMid meet" height="335" width="1000" xmlns="http://www.w3.org/2000/svg" xmlns:xlink="http://www.w3.org/1999/xlink"><defs></defs><g id="tight-bounds" transform="matrix(1,0,0,1,0.23998764647546977,-0.1074888101947522)"><svg viewBox="0 0 395.52 133.2149776203895" height="133.2149776203895" width="395.52"><g><svg viewBox="0 0 596.7761389904855 200.99999999999997" height="133.2149776203895" width="395.52"><g><rect width="8.480778282423039" height="200.99999999999997" x="222.20161969515286" y="0" fill="#ea3c12" opacity="1" stroke-width="0" stroke="transparent" fill-opacity="1" class="rect-o-0" data-fill-palette-color="primary" rx="1%" id="o-0" data-palette-color="#ea3c12"></rect></g><g transform="matrix(1,0,0,1,252.88338824569905,0.4999999999999858)"><svg viewBox="0 0 343.8927507447865 200" height="200" width="343.8927507447865"><g><svg viewBox="0 0 343.8927507447865 200" height="200" width="343.8927507447865"><g><svg viewBox="0 0 343.8927507447865 200" height="200" width="343.8927507447865"><g transform="matrix(1,0,0,1,0,0)"><svg width="343.8927507447865" viewBox="1.0499992370605469 -36.349998474121094 175.94998168945312 87.30000305175781" height="200" data-palette-color="#ea3c12"><svg></svg><svg></svg><g class="undefined-text-0" data-fill-palette-color="primary" id="text-0"><path d="M22.9 0h-19.05v-4.6h6.05v-13.95c0-1.1-0.533-1.65-1.6-1.65v0h-3.95v-4.6h5.95c1.367 0 2.483 0.39 3.35 1.17 0.867 0.787 1.3 1.88 1.3 3.28v0 0.6h0.25c0.367-1.867 1.157-3.277 2.37-4.23 1.22-0.947 2.997-1.42 5.33-1.42v0h3.85v5.6h-5.4c-1.967 0-3.483 0.683-4.55 2.05-1.067 1.367-1.6 3-1.6 4.9v0 8.25h7.7zM45.3 0.6v0c-2.4 0-4.517-0.543-6.35-1.63-1.833-1.08-3.267-2.587-4.3-4.52-1.033-1.933-1.55-4.183-1.55-6.75v0c0-2.6 0.51-4.883 1.53-6.85 1.013-1.967 2.443-3.5 4.29-4.6 1.853-1.1 3.997-1.65 6.43-1.65v0c2.4 0 4.467 0.54 6.2 1.62 1.733 1.087 3.077 2.53 4.03 4.33 0.947 1.8 1.42 3.783 1.42 5.95v0c0 0.333 0 0.69 0 1.07 0 0.387-0.017 0.813-0.05 1.28v0h-18.65c0.167 2.3 0.917 4.04 2.25 5.22 1.333 1.187 2.9 1.78 4.7 1.78v0c1.567 0 2.81-0.327 3.73-0.98 0.913-0.647 1.587-1.537 2.02-2.67v0h5.35c-0.6 2.367-1.85 4.357-3.75 5.97-1.9 1.62-4.333 2.43-7.3 2.43zM45.3-20.8v0c-1.633 0-3.083 0.49-4.35 1.47-1.267 0.987-2.083 2.363-2.45 4.13v0h13.2c-0.133-1.667-0.783-3.017-1.95-4.05-1.167-1.033-2.65-1.55-4.45-1.55zM75.35 0.6v0c-2.3 0-4.36-0.533-6.18-1.6-1.813-1.067-3.237-2.577-4.27-4.53-1.033-1.947-1.55-4.237-1.55-6.87v0c0-2.633 0.523-4.917 1.57-6.85 1.053-1.933 2.48-3.443 4.28-4.53 1.8-1.08 3.85-1.62 6.15-1.62v0c3.167 0 5.727 0.79 7.68 2.37 1.947 1.587 3.187 3.763 3.72 6.53v0h-5.55c-0.333-1.2-1.01-2.15-2.03-2.85-1.013-0.7-2.303-1.05-3.87-1.05v0c-1.133 0-2.207 0.3-3.22 0.9-1.02 0.6-1.837 1.493-2.45 2.68-0.62 1.18-0.93 2.653-0.93 4.42v0c0 1.733 0.31 3.2 0.93 4.4 0.613 1.2 1.43 2.107 2.45 2.72 1.013 0.62 2.087 0.93 3.22 0.93v0c1.6 0 2.883-0.35 3.85-1.05 0.967-0.7 1.65-1.667 2.05-2.9v0h5.55c-0.667 2.733-1.967 4.9-3.9 6.5-1.933 1.6-4.433 2.4-7.5 2.4zM104.5-28.6v0c-1.167 0-2.14-0.377-2.92-1.13-0.787-0.747-1.18-1.67-1.18-2.77v0c0-1.1 0.393-2.017 1.18-2.75 0.78-0.733 1.753-1.1 2.92-1.1v0c1.2 0 2.19 0.367 2.97 1.1 0.787 0.733 1.18 1.65 1.18 2.75v0c0 1.1-0.393 2.023-1.18 2.77-0.78 0.753-1.77 1.13-2.97 1.13zM115.45 0h-20.9v-4.6h7.8v-13.95c0-1.1-0.533-1.65-1.6-1.65v0h-5.5v-4.6h6.45c2.067 0 3.573 0.473 4.52 1.42 0.953 0.953 1.43 2.463 1.43 4.53v0 14.25h7.8zM128.75 11h-5.3v-35.8h4.6l0.4 3.8h0.3c0.667-1.233 1.677-2.277 3.03-3.13 1.347-0.847 2.953-1.27 4.82-1.27v0c1.933 0 3.7 0.49 5.3 1.47 1.6 0.987 2.873 2.437 3.82 4.35 0.953 1.92 1.43 4.313 1.43 7.18v0c0 2.833-0.49 5.217-1.47 7.15-0.987 1.933-2.313 3.39-3.98 4.37-1.667 0.987-3.533 1.48-5.6 1.48v0c-1.833 0-3.367-0.367-4.6-1.1-1.233-0.733-2.15-1.567-2.75-2.5v0zM135.2-4.45v0c1.867 0 3.427-0.667 4.68-2 1.247-1.333 1.87-3.333 1.87-6v0c0-2.667-0.623-4.65-1.87-5.95-1.253-1.3-2.813-1.95-4.68-1.95v0c-1.9 0-3.477 0.657-4.73 1.97-1.247 1.32-1.87 3.313-1.87 5.98v0c0 2.633 0.623 4.617 1.87 5.95 1.253 1.333 2.83 2 4.73 2zM165.3 0.6v0c-2.4 0-4.517-0.543-6.35-1.63-1.833-1.08-3.267-2.587-4.3-4.52-1.033-1.933-1.55-4.183-1.55-6.75v0c0-2.6 0.51-4.883 1.53-6.85 1.013-1.967 2.447-3.5 4.3-4.6 1.847-1.1 3.987-1.65 6.42-1.65v0c2.4 0 4.467 0.54 6.2 1.62 1.733 1.087 3.073 2.53 4.02 4.33 0.953 1.8 1.43 3.783 1.43 5.95v0c0 0.333 0 0.69 0 1.07 0 0.387-0.017 0.813-0.05 1.28v0h-18.65c0.167 2.3 0.917 4.04 2.25 5.22 1.333 1.187 2.9 1.78 4.7 1.78v0c1.567 0 2.807-0.327 3.72-0.98 0.92-0.647 1.597-1.537 2.03-2.67v0h5.35c-0.6 2.367-1.85 4.357-3.75 5.97-1.9 1.62-4.333 2.43-7.3 2.43zM165.3-20.8v0c-1.633 0-3.083 0.49-4.35 1.47-1.267 0.987-2.083 2.363-2.45 4.13v0h13.2c-0.133-1.667-0.783-3.017-1.95-4.05-1.167-1.033-2.65-1.55-4.45-1.55z" data-fill-palette-color="primary" fill="#ea3c12" opacity="1"></path><path d="M18.15 50.35h-6.35l-10.75-24.8h6l7.95 19.2 8-19.2h5.95zM42.75 50.95v0c-1.967 0-3.617-0.343-4.95-1.03-1.333-0.68-2.333-1.597-3-2.75-0.667-1.147-1-2.403-1-3.77v0c0-2.433 0.893-4.333 2.68-5.7 1.78-1.367 4.303-2.05 7.57-2.05v0h6.4v-0.55c0-3.733-1.733-5.6-5.2-5.6v0c-1.433 0-2.64 0.307-3.62 0.92-0.987 0.62-1.647 1.613-1.98 2.98v0h-5.3c0.267-2.6 1.393-4.66 3.38-6.18 1.98-1.513 4.487-2.27 7.52-2.27v0c3.667 0 6.333 0.9 8 2.7 1.667 1.8 2.5 4.283 2.5 7.45v0 15.25h-4.5l-0.45-3.65h-0.35c-0.733 1.167-1.65 2.167-2.75 3-1.1 0.833-2.75 1.25-4.95 1.25zM43.75 46.5v0c2.167 0 3.793-0.66 4.88-1.98 1.08-1.313 1.67-2.987 1.77-5.02v0h-5.8c-1.9 0-3.24 0.307-4.02 0.92-0.787 0.62-1.18 1.48-1.18 2.58v0c0 1.1 0.393 1.957 1.18 2.57 0.78 0.62 1.837 0.93 3.17 0.93zM72.8 50.95v0c-3 0-5.277-0.927-6.83-2.78-1.547-1.847-2.32-4.537-2.32-8.07v0-14.55h5.3v13.9c0 2.033 0.443 3.623 1.33 4.77 0.88 1.153 2.237 1.73 4.07 1.73v0c1.833 0 3.367-0.617 4.6-1.85 1.233-1.233 1.85-3.017 1.85-5.35v0-13.2h5.3v24.8h-4.6l-0.45-3.7h-0.25c-0.667 1.2-1.7 2.217-3.1 3.05-1.4 0.833-3.033 1.25-4.9 1.25zM115.35 50.35h-21.95v-4.6h8.3v-25.15c0-1.1-0.533-1.65-1.6-1.65v0h-6v-4.6h6.95c1.933 0 3.407 0.507 4.42 1.52 1.02 1.02 1.53 2.497 1.53 4.43v0 25.45h8.35zM144.75 50.35h-7.05c-2.433 0-4.367-0.593-5.8-1.78-1.433-1.18-2.15-3.287-2.15-6.32v0-12.2h-6.25v-4.5h3.7c1.7 0 2.7-0.833 3-2.5v0l0.75-4h4.1v6.5h9.8v4.5h-9.8v12.1c0 1.3 0.293 2.207 0.88 2.72 0.58 0.52 1.587 0.78 3.02 0.78v0h5.8z" data-fill-palette-color="primary" fill="#ea3c12" opacity="1"></path></g></svg></g></svg></g></svg></g></svg></g><g transform="matrix(1,0,0,1,0,0.4999999999999858)"><svg viewBox="0 0 200.0006294270297 200" height="200" width="200.0006294270297"><g><svg xmlns="http://www.w3.org/2000/svg" xmlns:xlink="http://www.w3.org/1999/xlink" version="1.0" x="0" y="0" viewBox="10 10.000249862670898 80 79.99974822998047" enable-background="new 0 0 100 100" xml:space="preserve" height="200" width="200.0006294270297" class="icon-icon-0" data-fill-palette-color="accent" id="icon-0"><path d="M17.272 33.77C12.702 36.478 10 39.772 10 43.333c0 8.246 14.382 15.072 33.249 16.413L17.272 33.77z" fill="#ea3c12" data-fill-palette-color="accent"></path><path d="M50 26.667c-2.249 0-4.439 0.098-6.588 0.244L73.347 56.85C83.418 53.821 90 48.903 90 43.333 90 34.128 72.09 26.667 50 26.667z" fill="#ea3c12" data-fill-palette-color="accent"></path><path d="M52.871 59.938c4.531-0.134 8.867-0.566 12.858-1.279L18.535 11.465c-1.953-1.953-5.12-1.953-7.07 0-1.953 1.95-1.953 5.117 0 7.07L52.871 59.938z" fill="#ea3c12" data-fill-palette-color="accent"></path><path d="M12.236 57.602c2.275 7.181 6.156 13.675 11.098 19.078L23.33 86.995C31.313 88.945 40.258 90 50 90c9.739 0 18.685-1.055 26.663-3.001l0.004-10.319c5.152-5.628 8.867-12.161 11.055-19.053-8.939 5.967-23.379 9.04-37.722 9.04C35.635 66.667 21.172 63.584 12.236 57.602z" fill="#ea3c12" data-fill-palette-color="accent"></path></svg></g></svg></g></svg></g></svg><rect width="395.52" height="133.2149776203895" fill="none" stroke="none" visibility="hidden"></rect></g></svg></g></svg>